<svg xmlns="http://www.w3.org/2000/svg" viewBox="0 0 283.46 283.46"><defs><style>.cls-1{fill:#22b573;}.cls-2{fill:#fff;}</style></defs><g id="Calque_2" data-name="Calque 2"><rect class="cls-1" width="283.46" height="283.46" rx="22.68"/></g><g id="Calque_1" data-name="Calque 1"><path class="cls-2" d="M222.46,46,117.39,151a48.21,48.21,0,1,0,15,15l61-61,9,9a8.51,8.51,0,0,0,12,0l4-4a8.5,8.5,0,0,0,0-12l-9-9L237.49,61a8.51,8.51,0,0,0,0-12l-3-3A8.5,8.5,0,0,0,222.46,46ZM112.72,212.84a29.76,29.76,0,1,1,0-42.09A29.77,29.77,0,0,1,112.72,212.84Z"/></g></svg>